<svg viewBox="0 0 760 180" xmlns="http://www.w3.org/2000/svg" width="720">
  <defs>
    <marker id="arr" markerWidth="8" markerHeight="6" refX="7" refY="3" orient="auto">
      <polygon points="0,0 8,3 0,6" fill="#5b8dee"/>
    </marker>
  </defs>
  <!-- beam arrow -->
  <line x1="10" y1="90" x2="60" y2="90" stroke="#5b8dee" stroke-width="2" marker-end="url(#arr)"/>
  <text x="8" y="78" fill="#5b8dee" font-family="monospace" font-size="11">e⁻ beam</text>
  <!-- absorber / active layer pairs -->
  <rect x="70"  y="40" width="28" height="100" fill="#334155" rx="2"/>
  <rect x="98"  y="40" width="16" height="100" fill="#1e3a5f" rx="2"/>
  <rect x="114" y="40" width="28" height="100" fill="#334155" rx="2"/>
  <rect x="142" y="40" width="16" height="100" fill="#1e3a5f" rx="2"/>
  <rect x="158" y="40" width="28" height="100" fill="#334155" rx="2"/>
  <rect x="186" y="40" width="16" height="100" fill="#1e3a5f" rx="2"/>
  <rect x="202" y="40" width="28" height="100" fill="#334155" rx="2"/>
  <rect x="230" y="40" width="16" height="100" fill="#1e3a5f" rx="2"/>
  <rect x="246" y="40" width="28" height="100" fill="#334155" rx="2"/>
  <rect x="274" y="40" width="16" height="100" fill="#1e3a5f" rx="2"/>
  <rect x="290" y="40" width="28" height="100" fill="#334155" rx="2"/>
  <rect x="318" y="40" width="16" height="100" fill="#1e3a5f" rx="2"/>
  <rect x="334" y="40" width="28" height="100" fill="#334155" rx="2"/>
  <rect x="362" y="40" width="16" height="100" fill="#1e3a5f" rx="2"/>
  <rect x="378" y="40" width="28" height="100" fill="#334155" rx="2"/>
  <rect x="406" y="40" width="16" height="100" fill="#1e3a5f" rx="2"/>
  <rect x="422" y="40" width="28" height="100" fill="#334155" rx="2"/>
  <rect x="450" y="40" width="16" height="100" fill="#1e3a5f" rx="2"/>
  <rect x="466" y="40" width="28" height="100" fill="#334155" rx="2"/>
  <rect x="494" y="40" width="16" height="100" fill="#1e3a5f" rx="2"/>
  <!-- labels -->
  <text x="84"  y="158" fill="#6b7290" font-family="monospace" font-size="10" text-anchor="middle">Pb</text>
  <text x="106" y="158" fill="#5b8dee" font-family="monospace" font-size="10" text-anchor="middle">LAr</text>
  <!-- shower blob -->
  <ellipse cx="230" cy="90" rx="80" ry="35" fill="rgba(91,141,238,0.06)" stroke="rgba(91,141,238,0.2)" stroke-width="1"/>
  <ellipse cx="220" cy="88" rx="50" ry="22" fill="rgba(91,141,238,0.08)" stroke="rgba(91,141,238,0.15)" stroke-width="1"/>
  <!-- shower lines -->
  <line x1="80"  y1="90" x2="160" y2="90" stroke="#5b8dee" stroke-width="1.5" opacity=".6"/>
  <line x1="130" y1="90" x2="200" y2="70"  stroke="#5b8dee" stroke-width="1"   opacity=".4"/>
  <line x1="130" y1="90" x2="200" y2="110" stroke="#5b8dee" stroke-width="1"   opacity=".4"/>
  <line x1="165" y1="75" x2="250" y2="60"  stroke="#a78bfa" stroke-width=".8"  opacity=".4"/>
  <line x1="165" y1="105" x2="250" y2="120" stroke="#a78bfa" stroke-width=".8" opacity=".4"/>
  <line x1="200" y1="65" x2="290" y2="55"  stroke="#4ade80" stroke-width=".7"  opacity=".3"/>
  <line x1="200" y1="115" x2="290" y2="125" stroke="#4ade80" stroke-width=".7" opacity=".3"/>
  <!-- energy profile bars -->
  <rect x="106" y="28" width="16" height="4"  fill="#5b8dee" opacity=".5"/>
  <rect x="142" y="18" width="16" height="14" fill="#5b8dee" opacity=".7"/>
  <rect x="186" y="12" width="16" height="20" fill="#5b8dee" opacity=".9"/>
  <rect x="230" y="15" width="16" height="17" fill="#5b8dee"/>
  <rect x="274" y="22" width="16" height="10" fill="#5b8dee" opacity=".8"/>
  <rect x="318" y="30" width="16" height="5"  fill="#5b8dee" opacity=".5"/>
  <rect x="362" y="35" width="16" height="3"  fill="#5b8dee" opacity=".3"/>
  <!-- legend -->
  <rect x="540" y="60" width="12" height="12" fill="#334155" rx="2"/>
  <text x="556" y="71" fill="#8896b3" font-family="monospace" font-size="11">Lead (Pb) absorber</text>
  <rect x="540" y="82" width="12" height="12" fill="#1e3a5f" rx="2"/>
  <text x="556" y="93" fill="#8896b3" font-family="monospace" font-size="11">Liquid Argon (active)</text>
  <rect x="540" y="104" width="12" height="6" fill="#5b8dee"/>
  <text x="556" y="113" fill="#8896b3" font-family="monospace" font-size="11">Energy deposit / layer</text>
</svg>
